<?xml version="1.0" encoding="UTF-8"?>
<svg width="23px" height="7px" viewBox="0 0 23 7" version="1.1" xmlns="http://www.w3.org/2000/svg" xmlns:xlink="http://www.w3.org/1999/xlink">
    <title>形状结合</title>
    <g id="页面-1" stroke="none" stroke-width="1" fill="none" fill-rule="evenodd" opacity="0.5">
        <g id="1.2---订货分析" transform="translate(-757.000000, -626.000000)" stroke="#3D88FB">
            <path d="M760.5,627 C761.880712,627 763,628.119288 763,629.5 C763,630.880712 761.880712,632 760.5,632 C759.119288,632 758,630.880712 758,629.5 C758,628.119288 759.119288,627 760.5,627 Z M768.5,627 C769.880712,627 771,628.119288 771,629.5 C771,630.880712 769.880712,632 768.5,632 C767.119288,632 766,630.880712 766,629.5 C766,628.119288 767.119288,627 768.5,627 Z M776.5,627 C777.880712,627 779,628.119288 779,629.5 C779,630.880712 777.880712,632 776.5,632 C775.119288,632 774,630.880712 774,629.5 C774,628.119288 775.119288,627 776.5,627 Z" id="形状结合"></path>
        </g>
    </g>
</svg>